<svg width="82" height="17" viewBox="0 0 82 17" fill="none" xmlns="http://www.w3.org/2000/svg">
<path fill-rule="evenodd" clip-rule="evenodd" d="M45.2384 5.3073C44.5203 4.8264 43.6483 4.586 42.6225 4.586C41.5966 4.586 40.6733 4.8337 39.8526 5.3291C39.0319 5.8245 38.3871 6.5457 37.9181 7.4928C37.4638 8.4253 37.2366 9.5254 37.2366 10.793C37.2366 12.0606 37.4638 13.168 37.9181 14.1151C38.3871 15.0476 39.0319 15.7615 39.8526 16.2569C40.6733 16.7523 41.5966 17 42.6225 17C43.6483 17 44.5203 16.7596 45.2384 16.2788C45.9712 15.7834 46.4988 15.1277 46.8212 14.3118V16.847H49.8989V0H46.8212V7.2524C46.4988 6.4365 45.9712 5.7881 45.2384 5.3073ZM41.2595 8.214C41.8457 7.5875 42.6225 7.2743 43.5897 7.2743C44.5277 7.2743 45.2971 7.5948 45.8979 8.2359C46.5135 8.8624 46.8212 9.7148 46.8212 10.793C46.8212 11.8566 46.5135 12.709 45.8979 13.3501C45.2971 13.9766 44.5277 14.2899 43.5897 14.2899C42.6225 14.2899 41.8457 13.9839 41.2595 13.372C40.6733 12.7454 40.3802 11.8858 40.3802 10.793C40.3802 9.7002 40.6733 8.8406 41.2595 8.214Z" fill="#E9EDED"/>
<path d="M3.0996 7.05571C3.5539 6.28351 4.1548 5.67881 4.9022 5.24171C5.6497 4.79001 6.485 4.56421 7.4083 4.56421V7.86441H6.507C4.2354 7.86441 3.0996 8.91341 3.0996 11.0116V16.847H0V4.73901H3.0996V7.05571Z" fill="#E9EDED"/>
<path fill-rule="evenodd" clip-rule="evenodd" d="M19.4779 10.3339C19.4779 10.6399 19.4412 10.9896 19.368 11.383H10.4428C10.4868 12.4612 10.7799 13.2553 11.3221 13.7653C11.8644 14.2752 12.5385 14.5302 13.3446 14.5302C14.0627 14.5302 14.6563 14.3554 15.1252 14.0057C15.6089 13.656 15.9166 13.1825 16.0485 12.5851H19.324C19.1628 13.4302 18.8184 14.1878 18.2908 14.8581C17.7632 15.5283 17.0817 16.0528 16.2464 16.4317C15.4257 16.8105 14.5097 16.9999 13.4985 16.9999C12.3114 16.9999 11.2562 16.7522 10.3329 16.2568C9.40958 15.7468 8.69148 15.0256 8.17858 14.0931C7.66558 13.1606 7.40918 12.0605 7.40918 10.7929C7.40918 9.52534 7.66558 8.42524 8.17858 7.49274C8.69148 6.54564 9.40958 5.82444 10.3329 5.32904C11.2562 4.83364 12.3114 4.58594 13.4985 4.58594C14.7002 4.58594 15.7481 4.83364 16.6421 5.32904C17.5507 5.82444 18.2468 6.50924 18.7304 7.38344C19.2287 8.24314 19.4779 9.22664 19.4779 10.3339ZM16.3563 10.028C16.4002 9.03724 16.1364 8.28684 15.5649 7.77684C15.008 7.26694 14.3192 7.01194 13.4985 7.01194C12.6631 7.01194 11.9597 7.26694 11.3881 7.77684C10.8165 8.28684 10.5014 9.03724 10.4428 10.028H16.3563Z" fill="#E9EDED"/>
<path d="M29.9659 5.85354C28.9253 5.00854 27.621 4.58594 26.0529 4.58594C24.8658 4.58594 23.8106 4.83364 22.8873 5.32904C21.964 5.82444 21.2459 6.54564 20.733 7.49274C20.22 8.42524 19.9636 9.52534 19.9636 10.7929C19.9636 12.0605 20.22 13.1606 20.733 14.0931C21.2459 15.0256 21.964 15.7468 22.8873 16.2568C23.8106 16.7522 24.8658 16.9999 26.0529 16.9999C27.621 16.9999 28.9253 16.5774 29.9659 15.7323C31.0211 14.8872 31.6805 13.7361 31.9443 12.2791H28.6689C28.537 12.9202 28.2365 13.4302 27.7676 13.809C27.2986 14.1732 26.705 14.3554 25.9869 14.3554C25.1662 14.3554 24.4774 14.0567 23.9205 13.4593C23.3783 12.8473 23.1071 11.9585 23.1071 10.7929C23.1071 9.62734 23.3783 8.74584 23.9205 8.14844C24.4774 7.53644 25.1662 7.23044 25.9869 7.23044C26.705 7.23044 27.2986 7.41994 27.7676 7.79874C28.2365 8.16304 28.537 8.66564 28.6689 9.30674H31.9443C31.6805 7.84974 31.0211 6.69864 29.9659 5.85354Z" fill="#E9EDED"/>
<path d="M36.1472 4.73901V16.847H33.0476V4.73901H36.1472Z" fill="#E9EDED"/>
<path d="M54.7083 4.73901V16.847H51.6087V4.73901H54.7083Z" fill="#E9EDED"/>
<path d="M64.7888 4.73901L61.7112 13.7654L58.6115 4.73901H55.2921L59.7986 16.847H63.5797L68.0863 4.73901H64.7888Z" fill="#E9EDED"/>
<path d="M71.8096 4.73901V16.847H68.71V4.73901H71.8096Z" fill="#E9EDED"/>
<path d="M82 14.268H76.021L81.78 7.16501V4.73901H72.767V7.29611H78.241L72.635 14.3992V16.847H82V14.268Z" fill="#E9EDED"/>
</svg>
